<svg xmlns="http://www.w3.org/2000/svg" xmlns:xlink="http://www.w3.org/1999/xlink" viewBox="0 0 750 460"><defs><style>.cls-1{fill:url(#linear-gradient);}.cls-2{fill:#649081;}.cls-3{fill:#d46d64;}.cls-4{fill:#424242;}.cls-5{fill:#2e2a25;}.cls-6{fill:#004d71;}.cls-7{font-size:62.96px;font-family:Bjorn-Regular, Bjorn;letter-spacing:0.1em;}.cls-7,.cls-9{fill:#403e3f;}.cls-8{fill:#cc9666;}.cls-9{font-size:13.91px;font-family:AGaramondPro-Regular, Adobe Garamond Pro;letter-spacing:0.1em;}.cls-10,.cls-11{font-size:9.27px;}.cls-10{letter-spacing:0.09em;}.cls-11,.cls-13{letter-spacing:0.1em;}.cls-12{letter-spacing:0.09em;}.cls-14{fill:none;stroke:#403e3f;stroke-miterlimit:10;stroke-width:1.68px;}.cls-15,.cls-21{fill:#58595b;}.cls-16{fill:#37b34a;}.cls-17{fill:#009345;}.cls-18{fill:#bbbdbf;}.cls-19{fill:#8cd0c4;}.cls-20{fill:#fff;}.cls-21{font-size:24.8px;font-family:PTSerif-Regular, PT Serif;}.cls-22{letter-spacing:-0.09em;}.cls-23{font-size:13.53px;}.cls-24{letter-spacing:-0.08em;}.cls-25{letter-spacing:-0.03em;}.cls-26{letter-spacing:-0.07em;}.cls-27{fill:#494949;}</style><linearGradient id="linear-gradient" x1="375" x2="375" y2="460" gradientUnits="userSpaceOnUse"><stop offset="0" stop-color="#d2d2d2"/><stop offset="1" stop-color="#a5a5a5"/></linearGradient></defs><title>logos-mockup</title><g id="Layer_2" data-name="Layer 2"><g id="Layer_1-2" data-name="Layer 1"><rect class="cls-1" width="750" height="460"/><path class="cls-2" d="M648.5,39.94S633.28,43,627.94,55c-4.4,9.9.2,20.68,2,24.19-8-15-12.28-30.69-11-46.21L606,33.69a84.21,84.21,0,0,0,24.57,46.7s13.64-3.75,19-15.78S648.5,39.94,648.5,39.94Z"/><path class="cls-3" d="M705.11,121.33a23.81,23.81,0,0,0-17.53-23,23.8,23.8,0,0,0-37.4-27c-6.93,9.56-18.05,12.72-18.6,12.87l-2.17.6-1.63-1.56a86.07,86.07,0,0,1-10-11.45,23.8,23.8,0,0,0-37.94,26.56,23.8,23.8,0,0,0,0,45.93,25.7,25.7,0,0,0-1.67,9.13c0,10.12,6.32,18.57,15.23,22.57h32.17l1.13-2c-1.36-2.26-2.5-5-2.5-6.83-8.14-1.26-14.68-10.41-14.68-18.78,0-5.15.11-15.73.71-24.57-1.69.09-3.6-.35-4.07-1.3s-.69-3.95-.46-6.13a1.38,1.38,0,0,1-.47-.31l-.32-.33a1.38,1.38,0,0,1,0-1.95l.92-.92a1.38,1.38,0,0,1,1.94,0l.32.32a1.42,1.42,0,0,1,.21.25,5.36,5.36,0,0,1,3.06.17h0a14.72,14.72,0,0,1,.67-2.71c2.44-7,7.94-13,18.46-14l-.38-2.53a2.61,2.61,0,0,1,2.19-3l1.9-.28a2.61,2.61,0,0,1,3,2.19l.66,3.79c10.11,1.67,17.18,9.48,17.18,24.31v19c0-1.35,2.06-2.26,3.7-2.26a4.26,4.26,0,0,1,4.25,4.3,4.32,4.32,0,0,1-7.15,3.24c2.26,6.7-1.65,14.5-11.67,19-3,4.24-4.35,6.44-4.35,6.44.07,1.53.09,1.73.06,4.73H674c8.91-4,15.23-12.45,15.23-22.57a24.71,24.71,0,0,0-1.67-9A24,24,0,0,0,705.11,121.33Z"/><path class="cls-4" d="M593.89,195.55a6.33,6.33,0,0,1-.7,8.18,7.23,7.23,0,0,1-4.67,1.51h-8.35a.9.9,0,0,1-.93-.93V184.44a.9.9,0,0,1,.93-.93h8.23a5.62,5.62,0,0,1,4.08,1.43,5.19,5.19,0,0,1,1.47,3.91,5.49,5.49,0,0,1-.81,2.95,4.62,4.62,0,0,1-2.3,1.89A5.68,5.68,0,0,1,593.89,195.55ZM591,186.32a3.87,3.87,0,0,0-2.81-1h-6.92v7.76h6.92A3.86,3.86,0,0,0,590.9,192a4,4,0,0,0,1.07-3A3.57,3.57,0,0,0,591,186.32Zm.84,16a3.86,3.86,0,0,0,1.29-3.17,3.8,3.8,0,0,0-1.32-3.2,5.38,5.38,0,0,0-3.4-1h-7.14v8.44h7.2A5.15,5.15,0,0,0,591.8,202.35Z"/><path class="cls-4" d="M612.09,197a.92.92,0,0,1-.65.26H599.7a7.17,7.17,0,0,0,.76,3.34,5.74,5.74,0,0,0,2.17,2.33,6.32,6.32,0,0,0,3.34.85,5.64,5.64,0,0,0,2.67-.62,5.51,5.51,0,0,0,1.89-1.58,1.05,1.05,0,0,1,.65-.28.85.85,0,0,1,.81.81.92.92,0,0,1-.31.65,7.81,7.81,0,0,1-2.5,2,6.85,6.85,0,0,1-3.18.78,8.51,8.51,0,0,1-4.22-1,7.26,7.26,0,0,1-2.86-2.87,8.66,8.66,0,0,1-1-4.27,9.4,9.4,0,0,1,1-4.46,7.28,7.28,0,0,1,2.69-2.92,6.81,6.81,0,0,1,3.57-1,7.31,7.31,0,0,1,3.49.87,6.87,6.87,0,0,1,2.65,2.55,7.68,7.68,0,0,1,1.06,4A.84.84,0,0,1,612.09,197Zm-10.26-5a5.76,5.76,0,0,0-2,3.57h10.59v-.25a4.9,4.9,0,0,0-.93-2.44,5,5,0,0,0-1.94-1.58,5.64,5.64,0,0,0-2.41-.54A5.2,5.2,0,0,0,601.83,192Z"/><path class="cls-4" d="M624.75,189.25a.8.8,0,0,1,.5.75,1,1,0,0,1-.25.7.79.79,0,0,1-.59.26,2.35,2.35,0,0,1-.61-.16,2.63,2.63,0,0,0-.85-.16,3.7,3.7,0,0,0-2.28.89,6.88,6.88,0,0,0-1.86,2.28,6,6,0,0,0-.73,2.83v7.67a.93.93,0,1,1-1.86,0V190.4a.93.93,0,1,1,1.86,0v2.73a7.12,7.12,0,0,1,2.16-2.93,5.4,5.4,0,0,1,3.4-1.2A2.47,2.47,0,0,1,624.75,189.25Z"/><path class="cls-4" d="M636.71,189.25a.8.8,0,0,1,.5.75,1,1,0,0,1-.25.7.79.79,0,0,1-.59.26,2.35,2.35,0,0,1-.61-.16,2.63,2.63,0,0,0-.85-.16,3.7,3.7,0,0,0-2.28.89,6.88,6.88,0,0,0-1.86,2.28,6,6,0,0,0-.73,2.83v7.67a.93.93,0,1,1-1.86,0V190.4a.93.93,0,1,1,1.86,0v2.73a7.12,7.12,0,0,1,2.16-2.93,5.4,5.4,0,0,1,3.4-1.2A2.47,2.47,0,0,1,636.71,189.25Z"/><path class="cls-4" d="M640,186.72a1.06,1.06,0,0,1-.34-.85v-.31a1,1,0,0,1,.36-.85,1.49,1.49,0,0,1,1-.3q1.24,0,1.24,1.15v.31a1.09,1.09,0,0,1-.33.85,1.36,1.36,0,0,1-.95.3A1.42,1.42,0,0,1,640,186.72ZM641.66,205a.93.93,0,0,1-1.6-.67V190a.93.93,0,1,1,1.86,0v14.28A.91.91,0,0,1,641.66,205Z"/><path class="cls-4" d="M649.87,191.18v10.4a2.22,2.22,0,0,0,.43,1.6,1.58,1.58,0,0,0,1.15.42,1.81,1.81,0,0,0,.47-.08,1.76,1.76,0,0,1,.43-.08.62.62,0,0,1,.48.23.8.8,0,0,1,.2.54.85.85,0,0,1-.5.73,2.26,2.26,0,0,1-1.18.3,6.44,6.44,0,0,1-1.49-.16,2.36,2.36,0,0,1-1.26-.93,4.05,4.05,0,0,1-.61-2.48V191.18h-2.27a.89.89,0,0,1-.64-.25.86.86,0,0,1,0-1.24.89.89,0,0,1,.64-.25H648V186a.93.93,0,1,1,1.86,0v3.45H653a.81.81,0,0,1,.61.28.89.89,0,0,1,.26.62.79.79,0,0,1-.25.61.88.88,0,0,1-.62.23Z"/><path class="cls-4" d="M670.76,201.52a7.57,7.57,0,0,1-2.83,3,8,8,0,0,1-8,0,7.56,7.56,0,0,1-2.83-3,9.21,9.21,0,0,1,0-8.44,7.74,7.74,0,0,1,13.66,0,9.21,9.21,0,0,1,0,8.44Zm-1.61-7.57A5.9,5.9,0,0,0,667,191.6a5.7,5.7,0,0,0-3.06-.85,5.63,5.63,0,0,0-3,.85,6.05,6.05,0,0,0-2.16,2.34,7.43,7.43,0,0,0,0,6.67,6,6,0,0,0,2.16,2.34,5.62,5.62,0,0,0,3,.85,5.78,5.78,0,0,0,5.22-3.17,7.63,7.63,0,0,0,0-6.71Z"/><path class="cls-4" d="M687.33,190.7a7,7,0,0,1,1.35,4.49v9.13a.88.88,0,0,1-.28.67.92.92,0,0,1-.65.26.9.9,0,0,1-.93-.93v-9a5.07,5.07,0,0,0-1-3.27,3.76,3.76,0,0,0-3.12-1.26,5.57,5.57,0,0,0-4.47,2.28,3.79,3.79,0,0,0-.74,2.25v9a.93.93,0,1,1-1.86,0V190.4a.93.93,0,1,1,1.86,0v1.71a6.59,6.59,0,0,1,2.41-2.22,6.46,6.46,0,0,1,3.21-.89A5.1,5.1,0,0,1,687.33,190.7Z"/><path class="cls-5" d="M109.15,360.75l-7.44,18.17A60.16,60.16,0,0,0,118,387.7l-.81-17.39Z"/><path class="cls-5" d="M198,323.35l-13.7,16.37,7.44,18.83a60,60,0,0,0,6.72-27.69A60.89,60.89,0,0,0,198,323.35Z"/><path class="cls-5" d="M77.84,330.86a60,60,0,0,0,6.72,27.69L92,339.72l-13.7-16.37A60.88,60.88,0,0,0,77.84,330.86Z"/><path class="cls-5" d="M159.12,370.31l-.81,17.39a60.16,60.16,0,0,0,16.26-8.79l-7.44-18.17Z"/><path class="cls-5" d="M113.2,276a60.54,60.54,0,0,0-24.59,20.53l26.82,36.47Z"/><path class="cls-5" d="M163.09,276l-2.23,57,26.82-36.47A60.54,60.54,0,0,0,163.09,276Z"/><polygon class="cls-6" points="225.63 286.53 198.31 286 158.29 340.33 160.85 276.01 139.61 257.43 139.07 398.4 155.52 399.84 156.94 369.28 167.73 356.39 186.66 402.56 207.38 404.38 181.65 339.18 225.63 286.53"/><polygon class="cls-6" points="115.44 276.01 118 340.33 77.97 286 50.65 286.53 94.64 339.18 68.9 404.38 89.63 402.56 108.56 356.39 119.34 369.28 120.76 399.84 137.22 398.4 136.68 257.43 115.44 276.01"/><path class="cls-5" d="M51.29,413.39h1v9.55l10.43-9.55h1.32l-7.57,6.9,8,9.68H63.25l-7.5-9-3.44,3.14V430h-1Z"/><path class="cls-5" d="M70.17,413.39H81.31v.88H71.19v6.64h9.52v.88H71.19v7.29H81.43V430H70.17Z"/><path class="cls-5" d="M87.82,413.39H99v.88H88.84v6.64h9.52v.88H88.84v7.29H99.08V430H87.82Z"/><path class="cls-5" d="M105.47,413.39h10.4v.88h-9.38v6.64h8.45v.88h-8.45V430h-1Z"/><path class="cls-5" d="M122,413.39h1v9.55l10.43-9.55h1.32l-7.57,6.9,8,9.68H134l-7.5-9-3.44,3.14V430h-1Z"/><path class="cls-5" d="M140.93,413.39h11.15v.88H142v6.64h9.52v.88H142v7.29h10.24V430H140.93Z"/><path class="cls-5" d="M158.58,413.39h11.15v.88H159.6v6.64h9.52v.88H159.6v7.29h10.24V430H158.58Z"/><path class="cls-5" d="M176.23,413.39h10.4v.88h-9.38v6.64h8.45v.88h-8.45V430h-1Z"/><path class="cls-5" d="M191.65,416.46v-3.07h13.59v3.07h-5V430h-3.65V416.46Z"/><path class="cls-5" d="M215.38,430,210,413.39h3.74l3.69,11.66h0l3.74-11.66H225L219.49,430Z"/><text class="cls-7" transform="translate(339.71 132.8)">TT<tspan class="cls-8" x="90.3" y="0">T</tspan></text><text class="cls-9" transform="translate(324.98 148.33)">3<tspan class="cls-10" x="8.35" y="0">r</tspan><tspan class="cls-11" x="12.22" y="0">d</tspan><tspan x="17.87" y="0">T Learning </tspan><tspan class="cls-12" x="97.13" y="0">S</tspan><tspan class="cls-13" x="105.16" y="0">olutions</tspan></text><rect class="cls-14" x="302.61" y="74.54" width="202.93" height="89.48"/><path class="cls-15" d="M682.58,377.3V393l-42.86-26.8V274.28l42.08,26.31v15.66l-30.08-18.81v22.13l26,16.26v14.49l-26-16.26V358Z"/><path class="cls-16" d="M615.71,358V334.06l-26,16.26V335.82l26-16.26V297.44l-30.08,18.81V300.6l42.08-26.31v91.87L584.85,393V377.3Z"/><path class="cls-15" d="M560.56,427.59v2.24h-9.13V416.67h9v2.24H554v3.17h5.54v2.07H554v3.43Z"/><path class="cls-15" d="M563.92,416.67l3.56,9.95,3.52-9.95h2.69l-5.13,13.15H566.4l-5.17-13.15Z"/><path class="cls-15" d="M580.22,429.92a6,6,0,0,1-2.62-.56,6.43,6.43,0,0,1-2-1.5,6.95,6.95,0,0,1-1.77-4.6,6.61,6.61,0,0,1,.49-2.52,7,7,0,0,1,1.35-2.13,6.43,6.43,0,0,1,2-1.47,6.07,6.07,0,0,1,2.58-.55,5.78,5.78,0,0,1,2.6.58,6.48,6.48,0,0,1,2,1.53,7,7,0,0,1,1.3,2.15,6.8,6.8,0,0,1,.46,2.45,6.65,6.65,0,0,1-.48,2.51,6.82,6.82,0,0,1-1.33,2.11,6.42,6.42,0,0,1-2,1.46A6.07,6.07,0,0,1,580.22,429.92Zm-3.82-6.67a5.27,5.27,0,0,0,.26,1.65,4.37,4.37,0,0,0,.75,1.41,3.71,3.71,0,0,0,1.2,1,3.74,3.74,0,0,0,3.26,0,3.72,3.72,0,0,0,1.2-1,4.53,4.53,0,0,0,.74-1.42,5.29,5.29,0,0,0,.25-1.6,5.16,5.16,0,0,0-.27-1.65,4.57,4.57,0,0,0-.76-1.41,3.64,3.64,0,0,0-1.2-1,3.76,3.76,0,0,0-3.25,0,3.67,3.67,0,0,0-1.2,1,4.52,4.52,0,0,0-.73,1.41A5.29,5.29,0,0,0,576.4,423.25Z"/><path class="cls-15" d="M588.61,429.83V416.67h2.56v10.91h6.71v2.24Z"/><path class="cls-15" d="M598.73,416.67l3.56,9.95,3.52-9.95h2.69l-5.13,13.15h-2.15L596,416.67Z"/><path class="cls-15" d="M619,427.59v2.24H609.9V416.67h9v2.24h-6.41v3.17H618v2.07h-5.54v3.43Z"/><path class="cls-15" d="M621,429.83V416.67h4.78a7.13,7.13,0,0,1,2.83.52,5.68,5.68,0,0,1,3.25,3.49,7.85,7.85,0,0,1,.41,2.55,7.7,7.7,0,0,1-.45,2.72,5.78,5.78,0,0,1-1.31,2.07,5.88,5.88,0,0,1-2,1.33,7.22,7.22,0,0,1-2.68.47Zm8.69-6.6a5.59,5.59,0,0,0-.26-1.74,3.88,3.88,0,0,0-.76-1.37,3.4,3.4,0,0,0-1.23-.89,4.16,4.16,0,0,0-1.66-.32h-2.22v8.67h2.22a4,4,0,0,0,1.68-.33,3.43,3.43,0,0,0,1.22-.92,4.05,4.05,0,0,0,.75-1.38A5.52,5.52,0,0,0,629.73,423.23Z"/><path class="cls-17" d="M647.88,427.59v2.24h-9.13V416.67h9v2.24h-6.41v3.17h5.54v2.07h-5.54v3.43Z"/><path class="cls-17" d="M652.44,421.4v8.43h-2.56V416.67h2l6.86,8.63v-8.62h2.56v13.14H659.2Z"/><path class="cls-17" d="M673.16,428.35a5,5,0,0,1-3.67,1.57,5.8,5.8,0,0,1-2.44-.52,6.13,6.13,0,0,1-2-1.43,6.8,6.8,0,0,1-1.33-2.14,7.12,7.12,0,0,1-.49-2.66,6.69,6.69,0,0,1,1.84-4.64,6.49,6.49,0,0,1,2-1.43,6.64,6.64,0,0,1,5.72.25,5,5,0,0,1,2,2.1l-1.91,1.41a3.55,3.55,0,0,0-1.4-1.5,3.85,3.85,0,0,0-2-.52,3.32,3.32,0,0,0-1.53.35,3.55,3.55,0,0,0-1.19,1,4.54,4.54,0,0,0-.76,1.41,5.27,5.27,0,0,0-.27,1.69,5,5,0,0,0,.3,1.73,4.39,4.39,0,0,0,.82,1.4,3.79,3.79,0,0,0,1.23.94,3.51,3.51,0,0,0,1.55.34,4.48,4.48,0,0,0,3.45-1.8v-.93h-2.65v-1.87h4.76v6.76h-2.11Z"/><path class="cls-17" d="M677.45,429.83V416.67H680v10.91h6.71v2.24Z"/><path class="cls-17" d="M688.27,429.83V416.67h2.56v13.15Z"/><path class="cls-17" d="M701.41,420.12a3.18,3.18,0,0,0-.47-.35,5.65,5.65,0,0,0-.83-.44A7.3,7.3,0,0,0,699,419a4.69,4.69,0,0,0-1.17-.15,2.61,2.61,0,0,0-1.57.39,1.29,1.29,0,0,0-.52,1.09,1.12,1.12,0,0,0,.19.68,1.67,1.67,0,0,0,.56.47,4.8,4.8,0,0,0,.94.37l1.31.35q1,.26,1.75.56a4.75,4.75,0,0,1,1.33.74,3.05,3.05,0,0,1,.84,1.07,3.53,3.53,0,0,1,.3,1.53,3.81,3.81,0,0,1-.4,1.81,3.36,3.36,0,0,1-1.08,1.21,4.66,4.66,0,0,1-1.56.68,7.83,7.83,0,0,1-1.84.21,9.88,9.88,0,0,1-2.93-.44,9,9,0,0,1-2.59-1.26l1.13-2.2a3.62,3.62,0,0,0,.6.43,9.28,9.28,0,0,0,1,.54,8,8,0,0,0,1.32.45,5.93,5.93,0,0,0,1.48.19q2.11,0,2.11-1.35a1.11,1.11,0,0,0-.24-.72,2.06,2.06,0,0,0-.69-.52,6.57,6.57,0,0,0-1.08-.41l-1.41-.41a12.05,12.05,0,0,1-1.64-.57,4.33,4.33,0,0,1-1.16-.72,2.73,2.73,0,0,1-.7-1,3.36,3.36,0,0,1-.23-1.31,4.08,4.08,0,0,1,.37-1.78,3.62,3.62,0,0,1,1-1.3,4.68,4.68,0,0,1,1.53-.79,6.36,6.36,0,0,1,1.87-.27,7.24,7.24,0,0,1,2.56.44,9.5,9.5,0,0,1,2,1Z"/><path class="cls-17" d="M716,416.67v13.15h-2.54v-5.61h-6v5.61h-2.56V416.67h2.56V422h6v-5.32Z"/><path class="cls-15" d="M639.72,257.42h68.11V405.65h-68.1v-3.09h65v-142h-65Z"/><polygon class="cls-16" points="627.71 260.51 562.69 260.51 562.69 402.56 627.71 402.56 627.71 405.65 559.6 405.65 559.6 257.43 627.71 257.43 627.71 260.51"/><path class="cls-18" d="M328.2,348a19.34,19.34,0,0,0-8.5.62,29.28,29.28,0,0,0,1.78-12.28c-1.53.18-7.3,1.41-6.79.48.67-1.22,2.32-3.13,1.82-4.77l-3.31.76c.85-1.34.64-6.11.64-6.11a27.63,27.63,0,0,1-3.09,1.15,12.07,12.07,0,0,0-.85-5.92,4,4,0,0,1-2.77.67c-.32-2.2-3.09-7.73-4-8.88-.91,1.15-3.67,6.68-4,8.88a4,4,0,0,1-2.77-.67,12.07,12.07,0,0,0-.85,5.92,27.63,27.63,0,0,1-3.09-1.15s-.21,4.77.64,6.11l-3.31-.76c-.5,1.64,1.14,3.55,1.82,4.77.51.93-5.25-.31-6.79-.48a29.28,29.28,0,0,0,1.78,12.28,19.34,19.34,0,0,0-8.5-.62c2.45,4.68,3.2,9.29,5.12,10.25l-1.41.26s5.86,6.87,12.35,9.74c3,1.43,6.23,2.2,9,5.35,2.77-3.15,6-3.91,9-5.35,6.5-2.86,12.35-9.74,12.35-9.74l-1.41-.26C325,357.34,325.75,352.72,328.2,348Z"/><path class="cls-19" d="M327.64,347.25a18.89,18.89,0,0,0-8.3.61,28.6,28.6,0,0,0,1.74-12c-1.5.17-7.13,1.38-6.63.47.66-1.19,2.26-3.06,1.77-4.66l-3.23.74c.83-1.31.62-6,.62-6a27,27,0,0,1-3,1.12,11.79,11.79,0,0,0-.83-5.78,3.89,3.89,0,0,1-2.7.65c-.31-2.14-3-7.55-3.9-8.67-.88,1.12-3.59,6.53-3.9,8.67a3.89,3.89,0,0,1-2.7-.65,11.79,11.79,0,0,0-.83,5.78,27,27,0,0,1-3-1.12s-.21,4.66.62,6l-3.23-.74c-.49,1.6,1.12,3.46,1.77,4.66.5.9-5.13-.3-6.63-.47a28.6,28.6,0,0,0,1.74,12,18.89,18.89,0,0,0-8.3-.61c2.39,4.57,3.13,9.08,5,10l-1.37.25s5.72,6.71,12.07,9.51c2.91,1.4,6.08,2.14,8.79,5.22,2.7-3.08,5.88-3.82,8.79-5.22,6.34-2.8,12.07-9.51,12.07-9.51l-1.37-.25C324.51,356.33,325.24,351.82,327.64,347.25Z"/><path class="cls-20" d="M303.16,368.64l0-.45c0-.29-.06-.72-.09-1.27-.07-1.1-.15-2.66-.23-4.54,0-.94-.08-2-.1-3s-.07-2.21-.08-3.39,0-2.39-.05-3.62l0-3.74,0-3.74c0-1.23,0-2.45.05-3.62s.05-2.31.08-3.39.07-2.1.1-3c.07-1.88.16-3.45.23-4.54s.12-1.72.12-1.72.05.63.12,1.72.16,2.66.23,4.54c0,.94.08,2,.1,3s.07,2.21.08,3.39.05,2.39.05,3.62l0,3.74,0,3.74c0,1.23,0,2.45-.05,3.62s-.05,2.31-.08,3.39-.07,2.1-.1,3c-.07,1.88-.16,3.45-.23,4.54,0,.55-.07,1-.09,1.27Z"/><path class="cls-20" d="M309.77,343l-.37.14c-.12,0-.26.1-.41.16s-.32.14-.5.22-.37.19-.57.28-.4.22-.6.35-.41.27-.62.4-.41.29-.6.46-.39.33-.58.49-.37.34-.54.51l-.25.25-.23.25c-.16.16-.3.33-.43.48s-.25.3-.36.42l-.28.34c-.15.19-.26.3-.26.3s0-.14,0-.4a2.65,2.65,0,0,1,.09-.45,4.23,4.23,0,0,1,.17-.57,5,5,0,0,1,.29-.64l.19-.34.23-.34a3.11,3.11,0,0,1,.26-.33c.09-.11.18-.22.28-.33a6.47,6.47,0,0,1,.65-.6,6.37,6.37,0,0,1,.73-.5,5.87,5.87,0,0,1,1.54-.61,5.34,5.34,0,0,1,.71-.1,3.72,3.72,0,0,1,.61,0,2.46,2.46,0,0,1,.46.06Z"/><path class="cls-20" d="M296.54,343l.38-.1a2.46,2.46,0,0,1,.46-.06,3.72,3.72,0,0,1,.61,0,5.34,5.34,0,0,1,.71.1,5.87,5.87,0,0,1,1.54.61,6.37,6.37,0,0,1,.73.5,6.47,6.47,0,0,1,.65.6c.1.1.19.22.28.33a3.11,3.11,0,0,1,.26.33l.23.34.19.34a5,5,0,0,1,.29.64,4.23,4.23,0,0,1,.17.57,2.65,2.65,0,0,1,.09.45c0,.25,0,.4,0,.4s-.1-.11-.26-.3l-.28-.34c-.11-.13-.22-.27-.36-.42s-.27-.32-.43-.48l-.23-.25-.25-.25c-.17-.18-.36-.34-.54-.51s-.38-.34-.58-.49-.41-.3-.6-.46-.41-.28-.62-.4-.41-.23-.6-.35-.39-.2-.57-.28-.35-.17-.5-.22-.29-.12-.41-.16Z"/><path class="cls-20" d="M289,354.16l.18,0a4.83,4.83,0,0,1,.51,0,12,12,0,0,1,1.82.15,23.52,23.52,0,0,1,5.29,1.47,21,21,0,0,1,2.65,1.29c.41.24.79.49,1.15.74a10.21,10.21,0,0,1,1,.77,7.13,7.13,0,0,1,.73.74,3.88,3.88,0,0,1,.27.34,3.19,3.19,0,0,1,.21.3,3.1,3.1,0,0,1,.25.45l.08.16-.13-.12a4.93,4.93,0,0,0-.37-.33l-.28-.22c-.11-.07-.21-.16-.33-.24s-.52-.34-.83-.53l-.49-.27-.53-.28c-.37-.19-.76-.38-1.17-.57l-1.28-.57-1.33-.56c-1.8-.73-3.63-1.4-5-1.91-.69-.25-1.27-.46-1.68-.58l-.48-.14Z"/><path class="cls-20" d="M317.27,354.16l-.18,0-.48.14c-.41.13-1,.34-1.68.58-1.38.51-3.21,1.18-5,1.91l-1.33.56-1.28.57c-.41.19-.8.38-1.17.57l-.53.28-.49.27c-.31.18-.59.36-.83.53s-.23.17-.33.24l-.28.22a4.93,4.93,0,0,0-.37.33l-.13.12.08-.16a3.1,3.1,0,0,1,.25-.45,3.19,3.19,0,0,1,.21-.3,3.88,3.88,0,0,1,.27-.34,7.13,7.13,0,0,1,.73-.74,10.21,10.21,0,0,1,1-.77c.35-.26.74-.5,1.15-.74a21,21,0,0,1,2.65-1.29,23.52,23.52,0,0,1,5.29-1.47,12,12,0,0,1,1.82-.15,4.82,4.82,0,0,1,.51,0Z"/><text class="cls-21" transform="translate(331.95 346.89)">H<tspan class="cls-22" x="18.05" y="0">A</tspan><tspan x="32.73" y="0">WTHORNE</tspan><tspan class="cls-23"><tspan x="0.39" y="12.52">N</tspan><tspan class="cls-24" x="10.29" y="12.52">A</tspan><tspan x="18.43" y="12.52">TU</tspan><tspan class="cls-25" x="35.89" y="12.52">R</tspan><tspan x="44.09" y="12.52">O</tspan><tspan class="cls-26" x="54.1" y="12.52">P</tspan><tspan class="cls-24" x="61.17" y="12.52">A</tspan><tspan x="69.31" y="12.52">THIC CENTRE</tspan></tspan></text><polygon class="cls-27" points="102.59 125.65 80.85 143.31 51.28 119.28 90.53 87.39 90.53 70.12 30.02 119.28 80.85 160.57 102.59 142.92 102.59 125.65"/><polygon class="cls-27" points="134.5 151.18 147.81 151.18 147.81 135.01 164.65 148.7 164.65 166.74 138.14 188.28 97.94 155.62 87.31 164.25 138.14 205.55 179.98 171.56 179.98 143.88 134.5 106.93 134.5 151.18"/><polygon class="cls-27" points="185.76 168.43 246.26 119.28 195.43 77.98 177.72 92.37 177.72 109.64 195.43 95.25 225 119.28 185.76 151.16 185.76 168.43"/><polygon class="cls-27" points="127.71 102.92 111.63 89.86 111.63 71.81 138.14 50.27 176.33 81.3 186.96 72.67 138.14 33 96.31 66.99 96.31 94.67 127.71 120.19 127.71 102.92"/></g></g></svg>