<svg xmlns="http://www.w3.org/2000/svg" viewBox="0 0 180 180"><defs><style>.cls-1{fill:#1e1e1e;}</style></defs><title>logo</title><g id="Layer_2" data-name="Layer 2"><g id="Layer_1-2" data-name="Layer 1"><path class="cls-1" d="M167.13,103.66l-28.57,17.17-14.32-8.65L100,126.78l-31.37-18.9L54.3,116.5,25.74,99.38,3,113.11a90,90,0,0,0,174.75-3Z"/><path class="cls-1" d="M41,103.51,56.87,76.69l9.81,8.47,11.59-10,11.59,10,11.59-10,11.58,10,10.34-8.93,21.26,36,22.52-13.53,3.58,2.16A81.43,81.43,0,1,0,9.78,104l16-9.63ZM70.25,53.57h40L121.7,73.19,113,80.79l-11.59-9.93-11.58,10-11.59-10L66.68,81l-8.16-7.32Z"/><path class="cls-1" d="M90,0A90.06,90.06,0,0,0,2,108.73l3.9-2.36a85.71,85.71,0,1,1,168.83-3.15l4,2.39A90.06,90.06,0,0,0,90,0Z"/></g></g></svg>