<svg xmlns="http://www.w3.org/2000/svg" viewBox="0 0 1398.15 142.34"><defs><style>.cls-1{fill:#e4eaf2;}.cls-2{fill:#c5ccd9;}.cls-3{fill:#92a6a6;}.cls-4{fill:#798c7c;}</style></defs><title>mountains</title><g id="Layer_2" data-name="Layer 2"><g id="Layer_1-2" data-name="Layer 1"><g id="Mountains"><path class="cls-1" d="M581,93.94c-7.54-6.38-36.56-25-42.36-25S520,56.8,514.22,56.8,498,40,488.69,39.39s-20.31-8.12-29.6-10.45-14.22-3.48-19.15-3.19-9.87-4.06-16-4.06-9.58-.87-12.48-2.32-9.29-6.09-14.22-6.09S389.16,11,386,11s-13.06-3.19-17.12-3.19-14.22,3.77-17.7,3.77-17.41,13.93-25.53,13.93-21.47,2.9-26.69,2.61-15.67,11-20.6,11S234.8,62.6,227.54,62.31,213.62,78.56,205.2,78.56s-24.66,6.67-30.18,7-10.16,8.41-17.7,8.41Z"/><path class="cls-1" d="M0,31.44C7.37,31.44,13,35,16.81,35s23.21-7.4,29.85-7.4S74,35,82.63,35s21.94,4.85,25.77,4.85,11.73-5.1,17.09-4.85S143.6,43.43,153,43.43s11.48-4.08,15.31-4.08,12.24,10.2,21.68,10.2,11.73-8.67,18.88-8.67,9.44,6.63,14.54,6.89,9.18-10.46,13.52-9.18,6.12-.26,8.42,0,12.5,6.63,16.07,6.12,7.65-6.12,13.78-6.12,14.8,5.36,17.35,5.36,2.68-2,4.85-1.91,2.3,4.85,4,4.59,10.59-8.67,16.45-9.06,16.58,1.66,22.45,1,6.63-1.4,9.06-1,11.61,6.25,14.8,6.25,7.27-9.69,12.37-11.1,17.09-4,23.6-3.83,8-2.55,11.86-2.42,8.42,1.91,11.48,2.42,7.14-.26,10.33.26,4.85,2.68,8.29,2.81,10.59-1.79,14.29-1.91,26.15,5,40.05,5,18.75-6.76,26-6.63S531.35,31.7,535,32s7.53-1.28,9.44-1.28,4.08,2.17,8.67,1.79,7-1.53,10.08-1.53,7.4,2,10.2,1.53,16.07-5.36,18.62-4.34,5.1,3.7,7.14,3.57,3.06-1.91,5-1.53,5.23,3.44,8.16,3.57,7.4-2.3,9.06-1.66,4,4.34,8.29,4.21,8.55,1.28,10.33.26,4.46-3.06,7.78-3.06,8.16,2.3,11.73,2.81,11-1.15,14.16.26,7.65,5.61,15.05,6.76,18.49-.77,21.94-1,6.76,3.32,13.27,2.42,17-8.16,22.07-9.69,12.5-.51,15.43-1.4,6.63-1.91,8-1.91,1.66,2,2.81,2,2.42-2.3,3.7-1.91,3.44,4.08,8.29,3.19,10.84-3.7,14.67-3.7,10.84.13,12.75-.64c2.17,1.4,3.19,4,5.61,4s7.4-1,10.2-.77,17,5.61,21.43,6,5.74-.89,7.91-.89,1.91,3.32,4.72,2.17,4.21-2.81,7.4-3.13,19.52-1.21,21.68-.7,5.74,3.44,8.16,3.83,11,3.32,15.31,1.53,5.61-4.08,9.95-4,3.83,3.32,5.1,3.19,3.32,2.17,6.51,2.68,8.29,2.68,14.8,3.19,11.61-.13,13.9,1.15,4.85,4.85,8.55,4.85,3.7-3.44,8.42-2.3,8,2.3,9.57,2.3,2.55-1.15,3.83-.89,2.93,2.55,5.36,2,16.45-2.68,21.68-1.28,15.18,5.1,18.88,5.74,12.88.38,15.69,1.79,12.24,8.16,16.45,8.67,12.24.38,17,1.4,32.65,10.71,37,9.31,13.9-5.1,17.6-4.72,23.6,6,26.91,6,43.24,4.46,49.62,4,19.13-1.4,26.15-.64,8.42,3.32,11.73,3.06,12-3.44,17-2.55,31.5,7.53,34.95,7.4,4.85-1.66,8.42-1.28,6.38,2.55,8.42,2.42,13.14-2.81,20.28,1.4,9.57,11.1,14.54,11.61,8.42.38,11.48,1.91,11.61,10.71,15.56,10.08a69.05,69.05,0,0,1,8.78-1.16v3.2H0V31.44"/><path class="cls-2" d="M1398.15,129.36c-16.7-13-33.4-35.5-44.33-36.23s-17.34-21.74-27-22.46-27-23.19-35.33-28.26-23.77-2.17-28.91-5.8-16.06-15.22-19.91-14.85-9-4.71-15.42-4.71-14.13,4.35-21.2,4.71-14.45-8-17-8-3.85,3.26-6.75,2.9S1160.14,8,1153.72,8s-19,10.14-27,10.51-20.24-6.16-25.05-5.8S1091.4,7.63,1087.55,8s-15.1-7.61-18-7.61-6.1,2.17-8.35,2.17S1059,0,1057,.39s-3.21,2.17-5.14,2.17S1048-1.13,1043.54.35,1028.13,5.1,1023,5.46s-13.17,10.14-18,12.68-15.42,8.33-19,9.06-17,.36-22.16-1.45-17.34-6.16-20.88-5.8-8,4.35-10.6,4.35-6.42,3.62-10,3.26-10-1.81-12.85-.36a41.27,41.27,0,0,1-11.24,2.9c-1.61,0-4.82-1.81-7.71-.72s-10.6,5.8-13.17,6.16-9,5.07-12.21,5.07-5.14-3.26-9.64-2.9-14.78,6.16-16.7,8-10.92,3.62-13.49,5.8-8,6.16-11.56,5.8-5.46-2.17-7.71-1.81-3.85,3.26-5.78,3.62-9-2.9-13.17-1.81-12.53,6.86-18.63,7.41-10,6.71-15.1,7.08-15.1-2.54-20.24-1.45-7.71-2.54-12.21-.36-14.78,12-19.27,13.4S683.16,91.32,679,91s-13.49,11.23-19.27,12-13.81,13.4-18.31,13.4-9.64,13-13.49,13Z"/><path class="cls-2" d="M428.91,129.36c23.56,0,86.43-61.66,105.63-62.83s45.33,11.34,61.91,12.22c8.09.43,16.8-4.9,24.32-3.07,11.63,2.83,20.62-4,23.81-4,6.22,0,23.09,13.51,30.29,13.18s38.61-19,46.79-19.31,18.65,1.31,28.14,1.64,36.09-5.25,44.92-5.91,15.05,2.95,19,2.29,9.16-5.24,13.09-4.25,11.13,4.25,17.67,2.95,20-8.51,24.54-8.18,10.14,9.82,12.76,9.82,9.82-4.25,12.76-4.25,11.78,3.6,17.34,3.93,15.05-2,21.27-1,24.21,5.89,28.47,5.89,10.14,0,13.09,1.64,56.73,32.63,66.55,36.12,26.18,6.76,31.2,9.6,5.67,6.54,7.85,6.54,7-5,10.47-4.58,9.82,11.56,15.05,11.56H428.91"/><path class="cls-3" d="M0,59c4.08,1,9.1,2,10.82,1.91,2.89-.17,7.31-.34,8.5-1s4.59-2.55,6.46-2.55,10.2,2,14.63,2S50.79,61,54.36,60.95,66.6,57,70.18,57.54s13.1,2.9,15.82,3.41,8.5,1.69,12.41,1.52,10.2-2.89,11.9-2.72,10,1.19,11.73,1,12.07-1.87,14.63-1.7,10.88,2.21,13.44,1.87,4.08-3.74,8-4.59,5.44-.17,7.48-.85,8.16-4.25,12.41-4.25,10.88,4.59,15.48,5.1,6.29,0,8,.68,5.78,3.06,8.33,2.89,6.29-4.25,11.22-4.25S237.86,57.2,241.77,57s14.29-2.55,18-2.21,17.52,5.82,24,7.67,9-1,11.56,0,6.63,3.9,8.67,4.41,46.26,13.27,46.26,13.27,5.78-4.93,9.86-5.61c1.17-.2,4.65-.53,9.1-.9,2.89-.24,6.18-2.53,9.51-2.77,2.76-.19,5.55,1.66,8.15,1.51a120.5,120.5,0,0,1,12.7-.4c3.23.51,8.74,7.67,11.8,9.37,1.2.67,6,2.84,11.82,5.25,1.93.8,1.93-.42,4,.38,1,.4,4.1,2.83,5.13,3.22,6.63,2.47,13,4.5,16.23,4.58,7,.17,16.16-12.41,21.43-14.12A49,49,0,0,1,479.07,79c1.13-.12,2.4,1,3.57.93,1-.08,1.91-1.39,2.92-1.45,2.8-.15,4.85-1,7.9-.22,3.71.91,6.59,2.82,12.53,3.81,1.46.24,2-.59,3.93-.48,1,.06,3.25,1.1,4.46,1.1a54.57,54.57,0,0,0,8.38-.68c1.66-.26,3.27,1.47,4.82,1.12,1.89-.43,3.69-2.94,5.36-3.41,5.78-1.62,10.15-3.23,12.05-2.82,4.46,1,23.59,7.58,27.55,7.31,3.44-.23,5.4,1,11.44,2.13,3.24.63,6.91,3.38,10.63,4.08,3,.57,6-.91,8.93-.39,3.71.66,7.18,1.25,10,1.66,12.75,1.87,39.42-3.86,44.22-3.57,17.18,1,29.59,15.13,35.54,16,4.22.61,20.41,14.08,22.79,15.65,1.84,1.22,3.61.18,4.78.45,3.22.74,7.64,6.52,11.38,6.69s8.67-4.59,19-3.23,34.35,13.78,34.35,13.78H0Z"/><path class="cls-3" d="M1398.15,137.47V55.07c-6.3-2.61-8.48-3.63-12.39-3.77s-10,3.34-14.8,2.47S1347,39.83,1338.31,39.83s-7,3-10.88,2.61-8.7-4.79-10.45-4.79-9.58,2.61-13.93,0-9.58-6.09-12.62-6.53-10-.87-15.67-2.61-10-3.92-12.62-3.92-7.4-4.35-12.19-4.35-13.49,7-17.41,7.4-8.27-3-11.32-2.18-5.22,2.18-7,2.18-3.48-2.61-4.79-2.61-4.35,2.61-6.09,2.18-14.8-5.22-20.46-4.79-6.53,2.18-10.45,1.74a92.09,92.09,0,0,0-10.45-2c-3.26-.22-5.22,1.74-7.4,1.74s-6.53-.87-9.58-.44-12.84,3-14.58,2.83-12,0-15,.87a60.12,60.12,0,0,0-12.84,6.65c-2,1.62-5.44,5.32-8.49,5.75s-12.62-4.57-14.8-3.92-15.45-3.92-18.28-3.26-14.8-3-18.28-2.61-5.88,1.31-8.27,1.31-8.49-.22-11.53.65-12.84,9.79-16.54,10.45-22.41.87-25.24.22-6.53-3.92-9.79-3.7S960.53,42,957.48,42.23s-7.4-2.83-8.7-2.83-2.61,1.31-4.21,1.45-3.34-1-4.5-1-3.19,3.19-4.64,3.34-3.19-1.6-6.67-.73-12.19,4.79-13.49,4.64-2.9,4.79-5.37,4.93-3.63-4.64-7.11-4.5-9.87,3.92-12.33,3.77-6.67,1.31-8.85,1-4.93,3.48-7.69,3-10,9-12.91,8.7-6.24,9.87-13.78,10-9.29-4.93-14.36-4.35-11.9-5.8-14.8-5.08-9.72,4.64-12.77,4.21-4.64-1.74-7.69-.73-7.25,4.93-9.14,4.64-2.18-2.47-3.77-2.18-4.5-2.47-6.09-1.74-2,1.89-4.35,2-3.34-2.47-5.66-1.74-5.66,3.63-7.54,3.77-3.34-1-6.24,0-3.63,4.21-6.53,3.63-8.7-3.48-14.51-2.76-13.64,6.82-17.12,7-6.53-4.06-10.74-3.77-10.88,9-14.65,8.69-6.24-2.46-8.41-1.59-7.83,6.38-11.61,6.67-11,3.63-13.49,3.77-6.24,2-10.88,2.32-6.67-1.74-10.16-1.16-5.37,2-7.11,2-6.09-2.61-11.61-2.47S608,99.17,604.64,99s-5.08,8.12-9,8-8.7,8.12-10.74,6.53-4.64-1.16-6.82,0-6.67,9.43-8.85,8.85-4.93,4.06-6.53,3.63-8.7,11.46-13.64,11.46Z"/><path class="cls-4" d="M1398.15,142.23v-88c-6.63-.51-7.48,1-9.53.85s-6.64-1.19-8.51,0-4.94,3.75-7.66,3.75-6.64-1.53-7.83-1.19-4.77,2.55-7.83,1.87-5.28-3.06-9-2.38-3.75,1.7-5.45,1.36-2.38-2.55-4.77-2.21-4.6,1.87-6.81,1.19-5.62-4.3-8.85-3.34-12.26,3.15-17-.16-8.34-7.57-10.21-7.06a10,10,0,0,1-3.06.68c-1,0-4.6-1.28-6.81-.72s-15.49,8.21-23.32,13.49-12.43.37-16.68.78-9.53-4.35-14.3-3.5-10.51-.93-11.41-2.89-7.32-6.81-9.87-5.62-5.45-1.7-8.51-.34-4.77,3.58-8.68,2.72-7.24-2.72-8.77-2.38-2.55,1.53-3.92.85-4.77-2.47-7.58-1.45-4.09,3.23-5,3.4-6-1.62-7.49-1.45-9.19,2.81-11.92,2.64-4.77,1.11-6.47.6-4.6-1.45-6.3-1.19-5.87,2.13-8.85,2.38-4.43,1.79-6.3,1.28-9-.09-10.3.43-6.19,10.9-11.86,12.6-21-3.4-25.25-1.36S1057.15,74.36,1052,73s-16.34-.85-18.39-1.87-8.34-6.81-10.9-6.81-6.3,1.7-8.85,1-9.7-6.3-11.92-5.28-7.15,3.23-8.17,3.06-7.66-2-9.19-1-5.11,4.94-8,4.6-8.51-1.36-10.9-.17-4.6,6.47-9.19,5.62-14.81-1-19.24.34S924.36,81.17,920.78,81s-13.79-.68-16.85-.17-11.58,4.77-14.47,4.43S875,90,871.24,88.66s-10-2-12.6-1-7.66,4.6-10.21,4.43-7.15,6-10.39,5.28-3.92,1.19-5.79.34a19.05,19.05,0,0,0-8.17-1.31,78.06,78.06,0,0,1-8,1.31c-1.7,0-5.27-1.31-7.15-1.31-4.43,0-9-2.84-11.75-2.78-7.32.17-9.87,3.52-12.77,2.78s-3.23-3.29-7.15-3-3.92,2.84-8.85,3-9.19,1.82-11.07,1.65-5.28-1.76-8.17-1.65-4.6,1.31-8.68,1.31-8.85-2.1-11.75-1.31-3.23,5.26-6.3,5.33-2.72,6.19-6,6-7.83-.51-11.58,1.36S692.48,120.5,690.27,120s-4.77,10.9-10.21,10.21-6.81,12-14,12Z"/><path class="cls-4" d="M0,56.12c12.73,0,14.39,3.57,16.94,3.57,7.65,0,13.39,2.3,17.73,2.3s4.21-1,6.51-1,4.08,1,6.51,1,5-.89,6.38-.89,4.85,2.81,6.76,2.81,4.59-1.15,6.38-1.15,4.08,1.15,6.25,1.15,3.57-1.53,5.23-1.53,4.46,1.53,6,1.53,9.18-1.53,12.12-1.53,8.67,5,11.35,5,3.57-.89,6.12-.89,3.83,2.42,6.51,2.42,3.06-1.79,7.65-1.28S141.3,73.08,144.49,73s8.67-2.3,12.63-2.3,6.38,1.79,8.29,1.79,7.4-2,11-.77,8.93,5.48,13.14,5.48,9.44-1.28,13.78-1.28,11.22,4,16.33,4.34,14.54.89,18.62,1.91,8.8,4,12.37,4.34,12-.64,16.33,0,6.76,4.21,10.33,4.08,8.29-1.91,11.35-1.15,6.12,2.08,9.06,2.08,8-1.95,11.48-1.95,14.29,7.4,20.41,7.4,16.45-2.3,23.34-2.3,9.82,5.1,16.2,5.1,19.26-4.08,23.72-4.08,21,1,26.53,1,16.2-4.21,23.47-2.81,17,4.46,21.81,4.72,18.75-2.93,23.72-3.19,27.42-1.15,34.31.77,20,7.4,24.36,8.29,23.34,2.81,25.89,2.81,2,3.44,4.34,3.44,3.32-3.06,6-2.68,12.75,2.42,16.2,5.1,7.4,7.78,10.71,9.31,10.59,5.74,14.29,5.87,12.12-1.79,15.82,0,13.65,9.06,18.24,8.8,9.69-1.66,12-1.4,10.59,6.63,15.05,6.63H0Z"/></g></g></g></svg>